<?xml version="1.0" encoding="UTF-8" standalone="no"?>
<!DOCTYPE svg PUBLIC "-//W3C//DTD SVG 1.1//EN" "http://www.w3.org/Graphics/SVG/1.1/DTD/svg11.dtd">
<svg width="100%" height="100%" viewBox="0 0 100 100" version="1.1" xmlns="http://www.w3.org/2000/svg" xmlns:xlink="http://www.w3.org/1999/xlink" xml:space="preserve" style="fill-rule:evenodd;clip-rule:evenodd;stroke-linejoin:round;stroke-miterlimit:1.41421;">
    <g transform="matrix(0.875557,0,0,0.875557,-536.655,-196.733)">
        <path d="M727.143,281.802C727.143,313.34 701.575,338.908 670.036,338.908C638.497,338.908 612.93,313.34 612.93,281.802C612.93,250.263 638.497,224.695 670.036,224.695C701.575,224.695 727.143,250.263 727.143,281.802Z" style="fill:rgb(18,150,204);fill-rule:nonzero;"/>
    </g>
    <g transform="matrix(1.06226,0,0,1.06227,-661.756,-249.348)">
        <path d="M661.14,311.775L661.14,280.43L655.818,280.43L655.818,271.118L661.14,271.118L661.14,269.538C661.14,264.633 662.637,259.229 666.295,255.902C669.455,252.91 673.861,251.828 677.52,251.828C680.348,251.828 682.509,252.161 684.254,252.66L683.755,262.387C682.675,262.055 681.344,261.806 679.681,261.806C675.524,261.806 673.779,265.048 673.779,269.04L673.779,271.118L681.926,271.118L681.926,280.43L673.861,280.43L673.861,311.775L661.14,311.775Z" style="fill:white;fill-rule:nonzero;"/>
    </g>
</svg>
