<?xml version="1.0" encoding="UTF-8" standalone="no"?>
<!DOCTYPE svg PUBLIC "-//W3C//DTD SVG 1.1//EN" "http://www.w3.org/Graphics/SVG/1.1/DTD/svg11.dtd">
<svg width="100%" height="100%" viewBox="0 0 100 100" version="1.1" xmlns="http://www.w3.org/2000/svg" xmlns:xlink="http://www.w3.org/1999/xlink" xml:space="preserve" style="fill-rule:evenodd;clip-rule:evenodd;stroke-miterlimit:1.41421;">
    <g transform="matrix(0.875565,0,0,0.875542,-218.361,-482.677)">
        <path d="M363.607,608.396C363.607,639.936 338.04,665.504 306.5,665.504C274.962,665.504 249.395,639.936 249.395,608.396C249.395,576.857 274.962,551.289 306.5,551.289C338.04,551.289 363.607,576.857 363.607,608.396Z" style="fill:rgb(241,110,159);fill-rule:nonzero;"/>
    </g>
    <g transform="matrix(0.875565,0,0,0.875542,-218.361,-481.035)">
        <path d="M325.022,635.416L286.734,635.416C281.35,635.416 276.984,631.051 276.984,625.666L276.984,587.377C276.984,581.992 281.35,577.627 286.734,577.627L325.022,577.627C330.407,577.627 334.772,581.992 334.772,587.377L334.772,625.666C334.772,631.051 330.407,635.416 325.022,635.416Z" style="fill:none;stroke:white;stroke-width:9.52px;"/>
    </g>
    <g transform="matrix(0.875565,0,0,0.875542,-218.361,-481.035)">
        <path d="M305.878,594.563C312.464,594.563 317.837,599.936 317.837,606.521C317.837,613.107 312.464,618.48 305.878,618.48C299.293,618.48 293.919,613.107 293.919,606.521C293.919,599.936 299.293,594.563 305.878,594.563Z" style="fill:none;stroke:white;stroke-width:9.52px;"/>
    </g>
    <g transform="matrix(0.875565,0,0,0.875542,-218.199,-480.143)">
        <path d="M323.115,584.584C325.482,584.584 327.413,586.514 327.413,588.881C327.413,591.246 325.482,593.178 323.115,593.178C320.749,593.178 318.817,591.246 318.817,588.881C318.817,586.514 320.749,584.584 323.115,584.584Z" style="fill:white;fill-rule:nonzero;"/>
    </g>
</svg>
