<?xml version="1.0" encoding="UTF-8" standalone="no"?>
<!DOCTYPE svg PUBLIC "-//W3C//DTD SVG 1.1//EN" "http://www.w3.org/Graphics/SVG/1.1/DTD/svg11.dtd">
<svg width="100%" height="100%" viewBox="0 0 100 100" version="1.1" xmlns="http://www.w3.org/2000/svg" xmlns:xlink="http://www.w3.org/1999/xlink" xml:space="preserve" style="fill-rule:evenodd;clip-rule:evenodd;stroke-linejoin:round;stroke-miterlimit:1.41421;">
    <g transform="matrix(0.474684,0,0,0.474684,-711.563,-1546.07)">
        <g transform="matrix(1.8445,0,0,1.8445,370.36,2240.01)">
            <path d="M726.119,608.504C726.119,640.043 700.552,665.609 669.013,665.609C637.474,665.609 611.906,640.043 611.906,608.504C611.906,576.965 637.474,551.396 669.013,551.396C700.552,551.396 726.119,576.965 726.119,608.504Z" style="fill:rgb(94,198,197);fill-rule:nonzero;"/>
        </g>
        <g transform="matrix(1.8445,0,0,1.8445,370.36,2240.01)">
            <path d="M647.142,589.111C651.517,589.111 654.24,586.209 654.24,582.584C654.16,578.881 651.517,576.061 647.222,576.061C642.931,576.061 640.123,578.881 640.123,582.584C640.123,586.209 642.846,589.111 647.057,589.111L647.142,589.111ZM653.414,632.021L653.414,594.264L640.866,594.264L640.866,632.021L653.414,632.021Z" style="fill:white;"/>
        </g>
        <g transform="matrix(1.8445,0,0,1.8445,370.36,2240.01)">
            <path d="M660.357,632.021L672.909,632.021L672.909,610.936C672.909,609.809 672.99,608.68 673.323,607.875C674.229,605.619 676.296,603.285 679.76,603.285C684.304,603.285 686.12,606.748 686.12,611.822L686.12,632.021L698.667,632.021L698.667,610.371C698.667,598.775 692.477,593.379 684.22,593.379C677.45,593.379 674.477,597.166 672.826,599.738L672.909,599.738L672.909,594.264L660.357,594.264C660.523,597.805 660.357,632.021 660.357,632.021Z" style="fill:white;"/>
        </g>
    </g>
</svg>
