<?xml version="1.0" encoding="UTF-8" standalone="no"?>
<!DOCTYPE svg PUBLIC "-//W3C//DTD SVG 1.1//EN" "http://www.w3.org/Graphics/SVG/1.1/DTD/svg11.dtd">
<svg width="100%" height="100%" viewBox="0 0 100 100" version="1.1" xmlns="http://www.w3.org/2000/svg" xmlns:xlink="http://www.w3.org/1999/xlink" xml:space="preserve" style="fill-rule:evenodd;clip-rule:evenodd;stroke-linejoin:round;stroke-miterlimit:1.41421;">
    <g transform="matrix(0.875557,0,0,0.875549,-380.458,-339.314)">
        <path d="M548.745,444.65C548.745,476.189 523.177,501.758 491.639,501.758C460.1,501.758 434.532,476.189 434.532,444.65C434.532,413.112 460.1,387.544 491.639,387.544C523.177,387.544 548.745,413.112 548.745,444.65Z" style="fill:rgb(77,199,228);fill-rule:nonzero;"/>
    </g>
    <g transform="matrix(0.875557,0,0,0.875549,-380.458,-339.314)">
        <path d="M524.725,422.418C522.263,423.51 520.349,423.939 517.573,424.27C520.406,422.57 522.583,419.883 523.61,416.676C520.958,418.25 518.02,419.391 514.893,420.006C512.39,417.339 508.822,415.672 504.872,415.672C497.293,415.672 491.146,421.818 491.146,429.398C491.146,430.475 491.267,431.521 491.503,432.527C480.095,431.955 469.98,426.49 463.21,418.184C462.028,420.211 461.351,422.57 461.351,425.086C461.351,429.846 463.775,434.049 467.457,436.512C465.208,436.439 463.09,435.822 461.24,434.793C461.238,434.85 461.238,434.91 461.238,434.967C461.238,441.617 465.973,447.164 472.251,448.424C471.1,448.74 469.886,448.908 468.635,448.908C467.748,448.908 466.89,448.822 466.052,448.662C467.799,454.113 472.866,458.082 478.874,458.193C474.176,461.877 468.258,464.07 461.825,464.07C460.719,464.07 459.624,464.006 458.553,463.879C458.553,463.879 463.611,470.873 481.285,473.322C498.958,475.771 529.373,463.838 518.607,429.215C521.292,427.279 522.885,425.172 524.725,422.418Z" style="fill:white;fill-rule:nonzero;"/>
    </g>
</svg>
