<?xml version="1.0" encoding="UTF-8" standalone="no"?>
<!DOCTYPE svg PUBLIC "-//W3C//DTD SVG 1.1//EN" "http://www.w3.org/Graphics/SVG/1.1/DTD/svg11.dtd">
<svg width="100%" height="100%" viewBox="0 0 250 209" version="1.1" xmlns="http://www.w3.org/2000/svg" xmlns:xlink="http://www.w3.org/1999/xlink" xml:space="preserve" style="fill-rule:evenodd;clip-rule:evenodd;">
    <g transform="matrix(1.08991,0,0,1.10534,51.5366,-972.371)">
        <g id="g3446" transform="matrix(1.18169,0,0,1.18169,-62.5829,-159.834)">
            <path id="path3005" d="M105.389,925.131C105.348,925.478 105.279,926.076 105.365,926.376C104.34,927.098 102.902,928.478 101.747,927.1C103.346,927.859 104.711,926.181 105.389,925.131" style="fill:white;"/>
            <path id="path3007" d="M102.091,949.628C99.533,950.116 98.15,950.372 95.806,951.513C95.789,951.133 95.814,950.856 95.914,950.693C96.52,950.469 99.595,949.057 102.042,949.038L102.091,949.628" style="fill:white;"/>
            <path id="path3009" d="M102.242,951.235C99.629,951.854 97.735,952.335 95.539,953.372C95.488,953.307 95.494,952.603 95.551,952.494C96.829,951.78 99.75,950.768 102.242,950.558L102.242,951.235" style="fill:white;"/>
            <path id="path3011" d="M102.263,953.028C99.61,953.655 97.706,954.044 95.432,955.051C95.344,954.763 95.357,954.361 95.432,954.187C97.743,953.41 98.434,952.984 102.256,952.257C102.256,952.498 102.263,952.786 102.263,953.028" style="fill:white;"/>
            <path id="path3013" d="M102.25,953.952C102.25,954.242 102.25,954.466 102.25,954.755C99.661,955.258 97.328,956.023 95.432,956.735C95.357,956.535 95.339,956.338 95.444,955.894C97.741,954.96 99.528,954.464 102.25,953.952" style="fill:white;"/>
            <path id="path3015" d="M102.25,955.642C102.25,955.931 102.25,956.155 102.25,956.444C99.661,956.948 97.328,957.711 95.432,958.424C95.357,958.223 95.339,958.028 95.444,957.584C97.741,956.649 99.528,956.154 102.25,955.642" style="fill:white;"/>
            <path id="path3017" d="M102.25,957.331C102.25,957.622 102.25,957.845 102.25,958.134C99.661,958.638 97.328,959.401 95.432,960.114C95.357,959.913 95.339,959.716 95.444,959.274C97.741,958.339 99.528,957.843 102.25,957.331" style="fill:white;"/>
            <path id="path3019" d="M102.25,959.02C102.25,959.311 102.25,959.534 102.25,959.823C99.661,960.326 97.328,961.091 95.432,961.804C95.357,961.602 95.339,961.406 95.444,960.963C97.741,960.028 99.528,959.532 102.25,959.02" style="fill:white;"/>
            <path id="path3021" d="M102.25,960.71C102.25,961 102.25,961.223 102.25,961.513C99.661,962.016 97.328,962.78 95.432,963.493C95.357,963.291 95.339,963.095 95.444,962.653C97.741,961.717 99.528,961.221 102.25,960.71" style="fill:white;"/>
            <path id="path3023" d="M102.25,962.4C102.25,962.69 102.25,962.913 102.25,963.202C99.661,963.706 97.328,964.469 95.432,965.182C95.357,964.981 95.339,964.784 95.444,964.343C97.741,963.407 99.528,962.911 102.25,962.4" style="fill:white;"/>
            <path id="path3025" d="M102.25,964.089C102.25,964.379 102.25,964.603 102.25,964.892C99.661,965.395 97.328,966.159 95.432,966.872C95.357,966.671 95.339,966.474 95.444,966.032C97.741,965.096 99.528,964.601 102.25,964.089" style="fill:white;"/>
            <path id="path3027" d="M102.25,965.779C102.25,966.068 102.25,966.293 102.25,966.581C99.661,967.085 97.328,967.848 95.432,968.561C95.357,968.36 95.339,968.163 95.444,967.722C97.741,966.785 99.528,966.29 102.25,965.779" style="fill:white;"/>
            <path id="path3029" d="M102.25,967.468C102.25,967.758 102.25,967.981 102.25,968.27C99.661,968.774 97.328,969.537 95.432,970.25C95.357,970.05 95.339,969.852 95.444,969.411C97.741,968.475 99.528,967.979 102.25,967.468" style="fill:white;"/>
            <path id="path3031" d="M102.25,969.157C102.25,969.447 102.25,969.671 102.25,969.959C99.661,970.463 97.328,971.226 95.432,971.939C95.357,971.739 95.339,971.543 95.444,971.1C97.741,970.164 99.528,969.669 102.25,969.157" style="fill:white;"/>
            <path id="path3033" d="M88.574,954.313C88.922,955.136 87.82,955.65 87.852,956.629C87.165,955.821 88.076,954.814 88.574,954.313" style="fill:white;"/>
            <path id="path3035" d="M87.852,963.432C87.232,963.3 87.905,962.199 87.995,961.839C87.973,961.67 87.732,961.717 87.562,961.695C88.152,959.486 86.989,956.952 88.864,955.615C88.995,957.001 88.022,957.281 87.852,958.365C88.451,958.338 88.067,957.326 88.719,957.352C88.892,958.682 88.035,958.983 87.852,959.958C88.239,960.335 88.16,959.019 88.719,959.089C88.922,960.305 88.176,960.571 87.995,961.405C88.309,961.848 88.227,960.682 88.719,960.826C88.853,961.875 88.032,962.325 87.852,963.432" style="fill:white;"/>
            <path id="path3037" d="M88.574,962.563C88.717,963.863 87.94,964.244 87.707,965.168C87.459,964.34 87.983,963.033 88.574,962.563" style="fill:white;"/>
            <path id="path3039" d="M88.286,964.299C88.453,964.276 88.542,964.333 88.574,964.444C88.66,965.592 87.872,965.865 87.707,966.76C87.269,965.886 88.139,965.073 88.286,964.299" style="fill:white;"/>
            <path id="path3041" d="M88.286,966.037C88.854,967.044 87.805,967.676 87.707,968.497C87.299,967.652 88.041,966.711 88.286,966.037" style="fill:white;"/>
            <path id="path3043" d="M88.14,967.773C89.034,968.517 87.714,969.439 87.707,970.234C87.212,969.349 88.062,968.567 88.14,967.773" style="fill:white;"/>
            <path id="path3045" d="M87.417,973.563C87.924,972.046 87.045,970.442 88.43,969.511C88.583,970.532 87.969,970.788 87.852,971.537C87.926,971.952 88.065,971.303 88.14,971.248C88.569,972.115 87.959,973.186 87.417,973.563" style="fill:white;"/>
            <path id="path3047" d="M88.14,972.984C88.673,973.908 87.772,974.64 87.562,975.301C87.216,974.564 87.786,973.501 88.14,972.984" style="fill:white;"/>
            <path id="path3049" d="M87.995,974.722C88.862,975.304 87.702,976.223 87.707,976.893C88.014,976.96 87.982,976.685 87.995,976.459C88.835,977.17 87.657,978.064 87.562,978.774C87.551,977.398 87.287,976.054 87.995,974.722" style="fill:white;"/>
            <path id="path3051" d="M87.05,979.787C87.144,980.13 86.846,981.317 86.325,981.524C86.505,980.884 86.752,980.312 87.05,979.787" style="fill:white;"/>
            <path id="path3053" d="M102.326,918.126C102.811,918.528 101.952,918.803 101.891,919.139C101.592,918.923 102.293,918.489 102.326,918.126" style="fill:white;"/>
            <path id="path3055" d="M98.602,948.023C99.078,947.898 100.331,947.81 100.895,948.272C98.464,948.662 98.163,948.875 96.81,949.34C97.019,948.836 97.487,948.349 98.602,948.023" style="fill:white;"/>
            <path id="path3057" d="M104.207,920.587C104.759,920.799 104.235,919.939 104.786,920.152C105.295,921.896 105.335,923.088 104.641,924.784C104.331,924.221 104.09,923.547 103.685,923.036C103.811,922.91 104.789,922.83 105.038,922.836C105.015,922.668 103.799,922.636 103.628,922.613C103.706,922.037 104.32,921.059 104.372,920.725C104.039,920.871 103.54,922.03 103.484,922.324C103.072,921.599 102.906,921.037 102.47,920.587C102.484,922.037 106.261,926.609 102.47,925.942C102.687,925.116 103.406,923.88 103.364,922.92C103.147,923.476 102.647,924.752 102.417,925.438C101.741,925.148 101.769,924.28 101.747,923.337C102.096,923.396 102.677,923.139 103.281,922.942C102.801,922.848 101.441,923.256 101.747,922.468C101.23,923.571 101.618,924.866 101.891,925.942C100.103,923.91 101.002,919.621 103.338,918.56C103.85,918.627 104.131,918.925 104.497,919.139C104.452,919.336 104.134,919.259 103.917,919.284C104.152,919.892 104.754,919.885 104.207,920.587" style="fill:white;"/>
            <path id="path3059" d="M132.142,937.956C132.201,937.607 131.879,937.641 131.998,937.232C133.218,937.593 134.45,936.502 133.735,935.35C133.411,935.413 133.676,936.063 133.589,936.362C133.198,936.55 133.076,937.007 132.434,936.942C132.624,936.576 133.513,936.392 133.011,935.785C132.744,935.807 132.922,936.274 132.722,936.362C132.314,936.144 132.154,935.678 131.42,935.785C131.654,934.715 131.65,933.412 131.852,932.311C132.046,932.311 132.24,932.311 132.434,932.311C132.656,932.521 132.561,933.052 132.577,933.469C135.38,933.781 135.63,938.191 132.142,937.956L132.142,937.956ZM132.267,938.779C132.883,938.865 133.825,938.721 134.315,938.68C134.27,939.399 134.341,941.004 134.464,941.557C132.471,940.793 132.533,939.622 132.267,938.779L132.267,938.779ZM125.34,927.245C126.055,926.643 126.895,927.439 126.744,928.661C126.696,929.005 126.342,929.062 126.318,928.586C126.342,927.797 126.078,927.25 125.34,927.245L125.34,927.245ZM124.413,942.748C123.811,943.111 122.984,943.387 122.735,943.022C123.459,942.773 123.002,942.415 123.271,942.07C123.335,942.008 124.927,941.281 124.927,941.281C124.989,941.269 125.052,941.795 125.052,942.033C124.852,942.231 124.619,942.485 124.413,942.748L124.413,942.748ZM122.408,935.371C122.775,935.203 123.979,934.501 124.579,934.234C124.579,934.234 124.656,935.914 124.713,936.072C124.579,936.239 123.271,937.045 122.445,937.377C122.746,936.607 122.75,935.892 122.408,935.371L122.408,935.371ZM120.569,934.067C120.945,933.47 120.77,933.86 120.436,933.365C121.29,932.915 123.853,931.422 124.48,931.026C124.512,931.293 124.765,933.575 124.547,933.666C124.346,933.733 122.441,934.668 122.073,934.801C121.691,934.769 120.888,934.205 120.569,934.067L120.569,934.067ZM120.869,970.749C120.083,970.441 120.439,969.476 120.052,969.442C120.03,967.526 120.094,955.388 120.039,951.922C120.09,948.675 118.063,947.447 117.748,946.953C118.1,946.805 120.91,949.28 121.024,952.461C121.092,954.347 120.98,965.895 120.98,967.921C120.98,968.268 121.049,970.387 120.869,970.749L120.869,970.749ZM112.279,968.728C113.694,967.422 117.588,968.219 119.893,969.388C116.836,969.147 114.008,968.891 112.279,968.728ZM112.578,973.74C112.444,973.48 112.588,972.644 112.638,972.345C112.997,972.222 116.108,972.32 116.734,972.665C116.813,973.311 116.781,973.199 116.822,974.001C114.758,973.711 113.648,973.649 112.578,973.74L112.578,973.74ZM112.578,975.715C112.444,975.457 112.588,974.62 112.638,974.321C112.997,974.198 116.108,974.296 116.734,974.64C116.813,975.287 116.781,975.175 116.822,975.977C114.758,975.687 113.648,975.626 112.578,975.715L112.578,975.715ZM112.578,977.721C112.444,977.462 112.588,976.626 112.638,976.326C112.997,976.204 116.108,976.301 116.734,976.646C116.813,977.293 116.781,977.18 116.822,977.982C114.758,977.692 113.648,977.631 112.578,977.721L112.578,977.721ZM112.578,979.611C112.444,979.351 112.588,978.515 112.638,978.216C112.997,978.092 116.108,978.19 116.734,978.535C116.813,979.182 116.781,979.07 116.822,979.873C114.758,979.582 113.648,979.519 112.578,979.611L112.578,979.611ZM112.755,969.93C113.614,969.918 115.107,969.918 116.338,970.224C116.747,970.701 116.715,971.892 116.793,972.141C114.96,971.626 113.186,971.77 112.424,971.775C112.312,970.952 112.36,970.222 112.755,969.93ZM119.867,967.479C116.81,967.239 113.94,966.981 112.211,966.818C113.626,965.511 117.562,966.311 119.867,967.479ZM119.814,965.728C116.757,965.488 113.886,965.22 112.157,965.057C113.571,963.751 117.509,964.559 119.814,965.728ZM119.785,958.67C116.728,958.43 113.833,958.177 112.103,958.014C113.517,956.709 117.48,957.502 119.785,958.67ZM112.116,951.204C113.53,949.899 117.509,950.707 119.814,951.876C116.757,951.635 113.845,951.367 112.116,951.204ZM112.184,952.842C113.599,951.536 117.483,952.327 119.789,953.496C116.73,953.255 113.913,953.005 112.184,952.842ZM119.803,957.033C116.744,956.793 113.859,956.527 112.129,956.363C113.544,955.057 117.496,955.866 119.803,957.033ZM112.144,954.602C113.558,953.297 117.509,954.105 119.814,955.273C116.757,955.032 113.872,954.766 112.144,954.602ZM112.157,959.789C113.572,958.482 117.47,959.237 119.777,960.406C116.718,960.165 113.886,959.952 112.157,959.789ZM119.763,963.872C116.705,963.632 113.901,963.377 112.171,963.215C113.585,961.909 117.457,962.704 119.763,963.872ZM112.157,961.467C113.572,960.162 117.483,960.953 119.789,962.121C116.73,961.881 113.886,961.63 112.157,961.467ZM119.476,950.307C116.418,950.067 113.661,949.803 111.931,949.641C113.346,948.334 117.169,949.139 119.476,950.307ZM111.987,946.718C112.34,946.409 112.89,946.55 113.851,946.786C112.847,947.027 112.058,947.719 111.862,948.454C111.752,947.781 111.64,947.031 111.987,946.718L111.987,946.718ZM111.445,908.862C111.058,908.862 110.7,908.923 110.315,908.923C109.646,907.679 110.269,905.911 109.925,904.512C111.032,903.373 113.527,905.749 113.867,906.877C114.487,907.442 114.395,908.185 114.457,908.963C112.686,908.688 112.802,909.785 111.735,909.585C111.673,909.309 111.322,909.325 111.445,908.862L111.445,908.862ZM108.479,928.141C107.559,928.039 106.921,928.201 106.001,928.101C106.507,927.754 108.384,927.11 108.479,928.141ZM111.194,932.553C109.842,932.531 102.098,932.531 99.766,932.531C99.823,929.173 99.98,926.172 99.94,924.025C99.888,923.725 99.819,923.605 99.72,923.337C100.718,921.677 99.436,918.195 101.023,917.402C100.929,917.255 100.815,917.183 100.733,916.967C101.259,916.711 104.763,915.539 106.957,915.665C107.262,915.625 106.748,915.278 107.102,915.086C107.779,914.996 109.053,914.867 109.853,915.086C109.853,917.836 109.853,920.587 109.853,923.337C109.682,922.903 109.573,922.554 109.418,922.178C108.888,922.178 108.357,922.178 107.826,922.178C107.826,920.008 107.826,917.836 107.826,915.665C108.617,915.507 109.072,915.884 109.418,915.375C109.01,915.31 107.908,915.396 107.579,915.396C107.594,916.382 107.509,921.273 107.551,922.174L107.108,922.174C107.035,921.045 106.389,919.759 105.799,918.705C105.612,919.616 106.533,920.67 106.378,922.034C106.192,922.235 105.694,922.123 105.511,922.324C105.407,923.101 105.675,923.51 105.799,924.06C106.123,923.999 105.82,923.147 106.108,923.045C107.068,922.995 107.948,922.986 109.024,923.002L109.067,924.132C108.41,924.261 108.452,925.319 108.696,926.232C108.571,926.357 108.518,926.224 108.26,926.666L106.378,926.666C106.336,926.178 106.028,925.504 106.028,924.998C105.531,926.316 105.281,927.855 105.799,929.561C105.868,929.299 105.839,928.924 106.09,928.836C106.862,928.836 107.633,928.836 108.405,928.836C108.405,929.705 108.405,930.574 108.405,931.442C109.185,931.947 110.635,931.209 111.301,931.587C111.145,931.627 111.194,932.553 111.194,932.553L111.194,932.553ZM110.451,934.922C108.254,934.922 103.243,934.861 101.06,934.917C101.023,934.685 100.916,933.738 101.239,933.738C103.368,933.738 108.707,933.63 110.576,933.759C110.622,934.039 110.752,934.921 110.451,934.921L110.451,934.922ZM104.099,937.742C105.688,937.708 107.406,937.689 108.9,937.677C108.9,937.982 108.896,938.322 108.919,938.647C108.921,938.679 109.465,938.669 109.467,938.701C109.478,938.808 109.495,938.911 109.467,939.05C107.333,939.124 105.46,939.055 103.669,939.134C103.611,939.008 103.624,938.858 103.641,938.771C103.652,938.712 104.067,938.789 104.074,938.729C104.111,938.442 104.05,938.091 104.099,937.742L104.099,937.742ZM109.521,941.031C99.432,941.108 96.931,942.027 92.918,944.035C92.819,943.705 93.117,943.448 93.378,943.275C94.339,942.643 95.899,942.53 95.957,940.996C99.743,939.521 104.493,939.273 108.981,939.411C108.973,939.585 108.981,939.807 108.993,939.958C108.995,939.992 109.452,939.983 109.453,940.013C109.465,940.188 109.46,940.308 109.384,940.308C108.811,940.308 106.321,940.19 105.793,940.238C104.631,940.345 103.954,940.296 103.362,940.42C103.474,940.468 103.347,940.646 103.474,940.676C103.71,940.633 107.805,940.569 109.413,940.568C109.614,940.568 109.608,941.073 109.521,941.031L109.521,941.031ZM101.643,935.892L102.355,937.053C99.045,937.38 96.758,937.92 94.075,939.258C93.82,938.779 93.579,938.203 93.735,938.048C94.387,937.394 98.596,936.213 101.643,935.892L101.643,935.892ZM93.508,937.759C93.445,937.697 93.141,937.479 93.346,937.369C94.994,936.484 98.997,935.628 101.25,935.347C101.285,935.387 101.537,935.659 101.474,935.697C98.805,935.962 95.045,936.885 93.508,937.759L93.508,937.759ZM93.016,936.318C94.374,935.309 97.409,934.752 99.687,934.353C99.942,934.221 99.884,934.281 100.015,934.025C100.003,934.131 100.136,934.387 100.308,934.888C97.733,935.224 94.861,935.973 92.94,936.918C92.914,936.663 92.76,936.509 93.016,936.318L93.016,936.318ZM94.31,919.113L94.223,918.497C94.33,918.497 95.251,918.422 95.401,918.421C95.408,918.53 95.466,918.858 95.479,919.013C95.426,919.039 94.452,919.086 94.31,919.113L94.31,919.113ZM95.689,916.442C95.99,916.117 96.496,915.621 96.554,915.54C96.706,915.479 96.817,915.441 97.03,915.364C96.079,916.275 95.451,917.131 95.401,918.347C94.988,917.683 95.137,917.119 95.689,916.442ZM96.233,914.029C96.902,913.483 98.322,912.95 98.996,912.48C99.007,913.071 98.977,913.604 98.779,913.665C98.186,914.075 96.59,914.547 96.1,915.375C96.087,914.577 95.914,914.304 96.233,914.029L96.233,914.029ZM97.273,917.725C97.365,917.147 97.471,916.524 97.549,915.809C98.202,915.383 98.712,915.043 99.286,914.652C99.286,915.23 99.286,915.809 99.286,916.389C98.581,916.889 98.073,917.317 97.273,917.725ZM95.523,922.034C95.523,921.551 95.523,921.068 95.523,920.587C95.716,920.587 95.909,920.587 96.1,920.587C95.873,921.034 96.218,922.053 95.523,922.034ZM97.105,929.577C96.727,929.565 95.852,929.2 95.667,928.548C95.583,927.933 95.757,927.167 96.091,926.969C95.937,926.906 95.739,926.868 95.564,926.794C95.589,926.456 95.464,924.513 95.363,923.172C95.604,923.172 96.15,923.191 96.391,923.191C96.591,923.932 96.327,926.214 96.706,927.521C97.718,927.677 97.094,923.996 96.391,923.047C96.333,922.507 96.698,922.047 97.161,922.028C97.059,920.813 97.058,919.989 97.15,919.693C97.084,919.617 97.235,919.345 96.789,919.295C96.833,918.904 96.904,918.653 96.893,918.562C98.125,917.816 98.673,917.558 99.286,917.258C98.98,920.742 100.113,929.664 97.105,929.577L97.105,929.577ZM101.458,905.822C100.89,907.156 100.515,908.968 100.426,910.778C100.702,909.687 102.058,903.963 104.775,903.459C106.27,903.491 106.821,904.908 107.016,905.302C107.618,905.352 107.859,904.294 107.789,903.69C108.002,905.595 107.856,907.149 107.821,909.073C106.642,909.136 105.661,909.223 104.937,909.261C104.553,909.598 105.316,909.683 104.932,910.02C103.215,910.426 101.654,910.989 100.01,911.467C100.025,909.118 100.632,907.362 101.458,905.822L101.458,905.822ZM109.474,908.973C109.361,908.209 109.424,904.888 109.424,904.098C109.448,904.036 109.583,904.517 109.611,904.462C109.611,905.138 109.751,908.096 109.9,908.948L109.474,908.973L109.474,908.973ZM107.132,914.034C106.767,914.144 106.043,914.024 106.416,915.026C103.804,915.324 102.056,915.926 100.154,916.678C100.025,915.966 99.923,915.661 100.138,915.465C100.539,915.327 100.904,915.255 100.802,914.55C102.533,913.82 103.836,913.572 106.818,913.034C106.803,912.882 106.843,912.77 106.839,912.68C106.926,912.679 107.111,912.636 107.162,912.66C107.231,912.933 106.998,913.739 107.132,914.035L107.132,914.034ZM109.707,912.48C109.707,913.011 109.707,913.542 109.707,914.074C108.888,914.107 108.157,914.144 107.536,914.218C107.381,913.788 107.441,913.191 107.614,912.587C108.436,912.515 109.034,912.534 109.707,912.48ZM105.944,911.179C105.265,911.198 105.873,911.447 105.799,911.901C103.683,912.196 101.844,912.77 100.154,913.495C100.552,913.168 100.326,912.516 100.93,912.315C100.82,911.875 100.343,912.788 100.444,912.047C101.983,911.474 103.671,911.171 105.31,910.81C105.31,910.81 105.206,910.441 105.365,910.309C106.455,910.192 109.601,910.042 110.425,909.973C110.864,909.935 110.724,910.495 110.737,910.979C109.438,911.016 107.559,911.055 105.944,911.179L105.944,911.179ZM109.418,926.232C109.44,925.653 109.048,924.972 109.418,924.494C109.563,924.494 109.707,924.494 109.853,924.494C109.729,925.094 110.185,926.275 109.418,926.232ZM109.635,898.805C109.793,898.882 110.766,899.607 111.275,900.017C111.275,900.017 111.285,900.678 111.285,900.802C110.697,900.776 110.12,900.714 109.563,900.756C108.702,900.823 108.169,900.955 107.536,901.046C107.4,900.583 107.425,900.181 107.397,899.623C108.006,899.412 108.903,898.893 109.635,898.805L109.635,898.805ZM109.725,883.532C109.729,883.517 109.73,883.505 109.733,883.488C109.733,883.499 109.733,883.508 109.733,883.517C109.73,883.522 109.728,883.528 109.725,883.532L109.725,883.532ZM115.643,919.574C116.48,919.414 116.344,921.477 116.946,922.034C117.171,921.561 116.774,920.118 116.511,919.284C117.141,919.783 117.627,921.128 117.234,922.178C117.236,922.519 117.63,922.125 117.524,921.888C117.836,921.865 117.589,922.403 117.669,922.613C117.223,922.718 117.243,922.363 116.8,922.468C116.327,923.781 116.278,925.517 114.484,925.508C115.236,924.786 114.142,924.102 114.196,923.191C114.631,923.624 114.702,924.422 115.063,924.929C115.544,924.348 115.501,923.244 115.934,922.613C115.418,922.369 115.643,921.062 115.788,920.587C113.895,922.5 116.123,919.831 115.643,919.574L115.643,919.574ZM118.568,909.689C118.477,909.662 118.192,909.729 118.134,909.713C117.897,906.768 117.298,904.784 116.68,904.224C117.24,905.223 117.746,907.757 117.83,909.671C117.798,909.933 117.501,909.879 117.379,910.02C117.24,907.408 116.629,904.718 115.293,903.123C115.547,902.92 116.221,903.724 116.511,904.086C116.393,903.305 115.707,902.864 115.207,902.349C117.687,902.844 118.61,906.43 118.568,909.689L118.568,909.689ZM118.497,915.265C118.372,915.387 118.035,915.401 117.816,915.375C117.798,914.733 118.096,914.424 118.383,913.559C118.497,913.773 118.547,914.976 118.497,915.265L118.497,915.265ZM117.833,910.089C118.252,909.614 118.223,910.502 118.392,911.758C117.971,911.867 118.016,912.443 117.379,912.337C117.726,911.503 117.248,910.647 117.833,910.089ZM114.918,926.232C116.032,925.559 116.815,924.558 116.946,922.903C117.088,922.903 117.234,922.903 117.379,922.903C117.293,924.747 116.462,925.845 114.918,926.232ZM118.763,948.571C117.752,948.462 113.067,947.963 112.675,948.052C113.537,947.069 116.893,947.22 118.763,948.571ZM120.001,927.617C120.904,927.484 121.739,926.614 120.804,925.812C121.366,925.47 122.273,924.95 123.025,924.784C123.061,925.468 123.009,925.712 122.977,926.18C123.444,925.879 124.196,926.29 124.512,926.715C125.02,928.556 124.278,929.956 122.273,930.392C122.175,930.492 122.241,930.792 122.341,930.993C122.91,930.692 123.912,930.123 124.211,930.024C124.211,930.024 124.398,930.312 124.278,930.424C122.575,931.426 119.975,933.056 117.959,933.903C117.405,930.076 117.97,926.328 117.996,922.805C118.001,922.187 118.018,921.081 117.964,920.632C117.894,920.068 117.728,918.093 117.897,916.788C117.926,916.717 118.534,915.888 118.568,915.818C118.833,919.347 118.782,927.836 120.001,927.617L120.001,927.617ZM124.915,940.918C124.537,941.107 123.554,941.548 123.109,941.72C122.884,941.645 122.859,941.13 122.833,941.031C123.803,940.295 123.967,940.396 124.199,939.326C124.308,939.258 124.642,938.917 124.826,938.926C124.926,939.612 124.952,940.654 124.915,940.918L124.915,940.918ZM86.838,947.074C86.844,947.029 86.756,946.723 86.767,946.573C86.776,946.447 87.762,946.007 87.813,945.973C87.826,945.658 87.83,945.15 87.83,945.15C88.169,944.875 90.127,943.895 90.456,943.746C90.525,944.386 90.34,945.089 90.54,945.527C90.04,945.801 88.036,946.505 86.838,947.074L86.838,947.074ZM88.019,947.898C87.629,948.376 87.204,949.026 87.015,950.139C86.423,949.356 87.584,947.754 87.919,947.635C88.153,947.595 88.057,947.735 88.019,947.898ZM83.904,952.447C83.956,952.325 83.417,951.875 84.496,952.001C84.496,952.001 84.54,951.029 84.522,950.983C85.474,951.018 86.349,950.976 87.127,950.839C87.121,951.473 87.282,951.937 87.417,952.43C86.294,952.347 84.962,952.468 83.904,952.447L83.904,952.447ZM82.316,948.382C82.295,948.065 82.231,947.471 82.231,947.303C82.739,947.26 85.023,947.322 85.723,947.303C85.723,947.689 85.703,947.992 85.703,948.377C84.545,948.377 83.474,948.382 82.316,948.382L82.316,948.382ZM81.214,946.182C81.214,946.182 81.205,946.148 81.176,945.956C81.743,945.908 83.899,945.786 84.548,945.768C84.56,945.83 84.585,946.031 84.585,946.031C83.427,946.031 82.372,946.182 81.214,946.182L81.214,946.182ZM84.666,940.706C86.524,939.82 88.13,938.459 89.811,937.233C90.081,937.626 90.022,938.527 89.899,938.675C88.934,939.489 86.063,941.143 84.923,941.92C84.898,941.407 84.788,941.067 84.666,940.706L84.666,940.706ZM84.435,940.542L84.172,940.455C85.714,939.464 88.304,937.663 89.874,936.581C89.833,936.573 89.849,936.92 89.849,936.92C88.057,938.224 86.356,939.416 84.435,940.542L84.435,940.542ZM87.127,942.878C87.361,942.836 87.393,943.082 87.367,943.384C86.277,944.368 85.807,945.579 85.687,946.951C84.846,945.099 85.873,943.916 87.127,942.878ZM85.171,944.859C84.768,944.113 85.681,943.276 85.875,942.646C86.596,942.989 85.043,943.973 85.171,944.859ZM90.456,941.575C90.488,941.841 90.501,942.786 90.403,943.315C90.168,943.422 87.521,944.858 87.127,945.049C87.059,944.841 86.75,944.807 87.778,944.241C87.778,944.07 87.775,943.462 87.762,943.281C88.482,942.732 89.941,941.841 90.456,941.575L90.456,941.575ZM109.156,885.93C108.822,886.451 105.542,886.837 105.542,886.837L108.345,885.507C108.345,885.507 109.596,885.249 109.156,885.93L109.156,885.93ZM108.494,883.914C109.327,884.002 108.318,884.874 108.318,884.874L105.454,886.332C105.454,886.332 107.861,883.85 108.494,883.914ZM138.349,948.749L140.031,946.903C140.029,946.838 138.383,941.793 138.383,941.793C137.494,941.759 136.426,941.895 135.184,941.864C134.619,940.234 135.215,937.532 135.328,935.496C134.743,934.004 133.202,933.472 133.157,931.442C131.892,931.016 130.724,931.759 129.249,931.587C128.985,931.99 129.389,932.731 129.395,933.324C128.121,934.098 126.676,933.103 126.353,932.021C126.866,930.974 127.657,928.825 126.787,927.245C126.293,926.619 125.616,926.593 125.485,926.232C125.384,925.696 125.992,925.87 126.209,925.653C125.408,924.912 125.222,923.989 125.34,922.613C125.493,922.236 126.1,922.31 126.209,921.888C125.973,921.207 125.648,920.618 125.776,919.574C126.879,919.567 126.806,918.385 127.513,917.981C127.205,916.936 127.1,915.69 126.643,914.796C126.116,914.752 125.701,914.82 125.34,914.942C124.101,914.138 124.153,912.091 123.603,910.743C122.602,908.29 120.141,905.72 118.103,904.375C117.637,902.477 115.626,902.123 114.049,901.335C114.527,900.703 114.43,899.494 114.918,898.874C114.754,898.082 113.711,897.851 113.036,897.138C112.758,896.843 112.665,896.161 112.313,895.835C111.761,895.322 111.069,895.108 110.71,894.992C110.703,894.202 110.611,893.128 110.58,891.829C113.873,892.55 116.204,892.952 116.642,893.031C117.16,893.124 117.797,892.621 117.328,892.398C116.935,892.21 114.84,891.839 111.467,891.195L116.013,887.907C116.013,887.907 116.466,886.723 115.543,887.04C115.1,887.192 113.403,888.546 110.623,890.736C110.58,889.076 110.585,887.158 110.523,885.515C111.013,885.577 111.705,885.53 112.144,885.074C112.563,884.638 112.638,883.704 111.973,883.496L113.063,883.024L113.104,883.85C114.234,882.596 115.7,881.51 115.7,881.51C115.7,881.51 114.071,882.158 113.007,881.977L113.043,882.668L112.035,883.109C112.648,882.131 111.533,881.7 111.191,881.79C110.81,881.89 110.605,882.088 110.422,882.278C110.363,881.18 110.361,880.41 110.306,880.23C110.041,879.361 109.824,879.713 109.734,880.228C109.71,880.365 109.642,881.488 109.66,883.127C109.584,882.918 109.391,882.889 108.898,882.969C108.031,883.105 104.863,886.351 103.909,886.756C104.623,887.173 104.826,887.115 104.209,888.064C104.684,887.824 106.241,887.304 108.008,887.004C108.888,886.853 109.32,886.516 109.573,886.392C109.573,886.392 109.444,890.721 109.431,890.836C105.945,890.181 103.06,889.647 102.623,889.603C101.699,889.511 102.66,890.022 102.66,890.022C102.66,890.022 105.909,890.83 109.472,891.612C106.853,893.691 105.32,895.029 104.973,895.345C104.207,896.042 105.216,895.658 105.216,895.658L109.431,892.662C109.461,893.765 109.43,894.334 109.462,895.026C109.461,895.039 109.46,895.05 109.46,895.064C107.682,895.41 107.492,897.332 105.95,897.911C105.883,899.592 105.692,900.51 106.815,901.335C104.651,901.778 103.712,903.444 101.748,904.085C99.87,906.201 99.217,907.756 98.565,909.702C98.618,909.975 98.635,910.161 98.565,910.281C98.227,910.981 98.01,911.531 97.788,911.975C97.483,912.087 95.345,913.475 95.089,913.639C95.678,915 95.261,915.639 94.655,917.112C94.376,917.412 93.447,917.063 93.497,917.691C93.548,918.8 94.434,920.322 94.799,921.599C94.226,922.74 95.626,924.889 95.113,926.668C94.861,926.572 93.235,926.343 92.87,926.292C92.6,926.41 90.714,928.047 91.181,928.548C91.628,928.11 92.619,927.157 92.999,926.781C92.999,927.263 93.045,928.128 93.045,928.611C90.877,927.984 91.36,930.689 91.47,932.455C91.229,932.621 90.3,933.348 89.733,933.758C90.351,932.709 89.031,932.081 89.523,930.691C89.942,929.511 91.26,930.042 91.325,928.692C90.602,929.797 89.771,929.368 89.298,930.573C88.706,932.086 90.176,933.388 88.844,934.531C88.499,934.826 88.234,934.709 87.722,934.667C87.722,935.39 87.707,935.784 87.707,936.508C87.205,936.819 83.772,939.138 83.094,939.727C83.037,939.812 83.132,939.877 83.207,939.852C84.16,939.263 87.622,936.798 88.132,936.531C88.137,936.046 88.114,935.697 88.13,935.279C88.709,935.279 89.287,935.313 89.864,935.313C89.789,935.01 89.817,934.455 89.912,934.237C90.163,933.861 91.031,933.327 91.529,933.022C91.45,933.957 91.81,935.497 91.497,936.197C90.968,936.004 90.588,935.845 90.037,935.674C89.973,935.775 85.428,938.918 83.596,940.078L83.22,939.982C83.785,940.475 84.122,940.829 84.485,940.918C84.582,941.357 84.713,941.873 84.792,942.408C84.285,943.473 83.778,944.233 84.286,945.291C83.61,945.397 81.343,945.439 80.625,945.566C80.725,945.893 80.96,946.645 81.196,947.257L81.8,947.375L81.947,948.509C82.587,950.102 83.1,951.826 83.411,952.538C83.471,952.675 83.759,952.53 83.818,952.666L83.809,953.499L83.075,953.588L83.132,954.414C83.132,954.414 84.217,956.185 84.233,956.772C84.434,964.319 83.887,974.681 83.934,981.522L84.673,981.535C84.65,980.514 84.763,964.003 85.102,956.338C85.456,955.872 85.827,955.424 86.404,955.179C86.902,955.117 87.215,955.237 87.563,955.324C87.596,954.867 87.912,954.254 87.545,953.876C87.545,954.07 87.563,953.974 87.563,954.167C87.244,954.162 83.935,954.28 83.683,954.196C83.532,953.893 84.032,953.986 84.069,953.911C84.036,953.809 84.044,952.99 84.136,953.003C84.136,953.003 86.423,952.977 87.68,953.02C87.709,952.556 87.68,951.499 87.68,950.686C87.68,950.249 87.573,949.623 87.748,949.056C87.921,948.492 88.548,948.048 88.453,947.747C88.252,947.109 89.164,946.874 89.477,946.806C89.769,946.742 91.103,947.121 91.291,947.898C89.004,947.448 88.872,947.957 88.671,948.286C88.727,948.31 89.21,948.003 89.674,947.936C90.276,947.878 90.918,947.922 91.187,948.275C90.958,959.242 91.056,970.351 91.036,981.523C91.76,981.523 92.483,981.523 93.207,981.523C93.207,970.572 93.207,959.619 93.207,948.667C94.887,948.14 93.92,945.717 93.351,944.613C96.072,942.895 99.694,942.273 103.454,941.596C103.928,942.184 104.211,942.383 104.65,942.829C104.901,942.559 105.289,942.258 105.653,942.095C105.845,941.987 106.33,941.844 106.693,941.882C107.52,942.046 108.1,942.433 108.385,943.299C107.082,942.842 106.033,942.889 105.453,943.499C106.289,943.186 107.035,943.419 107.385,943.697C107.473,955.758 107.215,967.672 107.537,979.208C107.537,979.208 107.558,979.923 107.558,980.068C108.436,980.068 108.962,980.056 109.563,980.077C109.563,980.559 109.563,981.041 109.563,981.523C110.722,981.523 111.48,981.523 112.638,981.523C112.517,981.191 112.725,980.341 112.725,980.133C114.206,980.185 115.95,980.056 116.735,980.306C116.823,980.887 117.119,981.012 116.879,981.528L123.171,981.523C123.035,970.289 122.954,958.755 122.879,948.811C123.244,948.548 123.239,947.915 123.604,947.653C123.604,947.17 123.604,946.687 123.604,946.205C123.841,945.801 124.814,945.568 125.34,945.915C125.626,957.741 125.73,969.926 126.241,981.523L137.356,981.523C136.841,972.581 136.457,963.507 136.342,954.166L137.99,952.635L137.382,950.951L136.444,950.929L136.444,949.05L138.35,948.748" style="fill:white;fill-rule:nonzero;"/>
        </g>
        <g id="g3429" transform="matrix(1.18169,0,0,1.18169,-62.5829,-159.834)">
            <path id="path3061" d="M54.828,1029.91C55.16,1030.12 55.888,1030.48 56.789,1030.48C57.531,1030.48 58.194,1030.07 58.194,1029.14C58.194,1028.48 57.809,1028.19 56.988,1027.74L56.127,1027.26C55.212,1026.76 54.616,1026.03 54.616,1024.84C54.616,1023.18 55.981,1022.32 57.531,1022.32C58.511,1022.32 59.201,1022.57 59.465,1022.65L59.386,1024.07C58.975,1023.91 58.432,1023.67 57.65,1023.67C56.802,1023.67 56.365,1024.12 56.365,1024.76C56.365,1025.44 56.829,1025.71 57.346,1026L58.34,1026.56C59.425,1027.17 59.943,1027.75 59.943,1029.05C59.943,1030.93 58.604,1031.83 56.842,1031.83C55.914,1031.83 55.199,1031.7 54.736,1031.42L54.828,1029.91" style="fill:white;fill-rule:nonzero;"/>
            <path id="path3063" d="M63.004,1023.8L60.937,1023.8L60.937,1022.45L66.754,1022.45L66.754,1023.8L64.7,1023.8L64.7,1031.7L63.004,1031.7L63.004,1023.8" style="fill:white;fill-rule:nonzero;"/>
            <path id="path3065" d="M72.293,1028.17L71.127,1023.86L71.1,1023.86L69.828,1028.17L72.293,1028.17L72.293,1028.17ZM72.651,1029.47L69.471,1029.47L68.808,1031.7L67.112,1031.7L70.213,1022.45L72.068,1022.45L75.048,1031.7L73.3,1031.7L72.651,1029.47" style="fill:white;fill-rule:nonzero;"/>
            <path id="path3067" d="M77.209,1023.8L75.142,1023.8L75.142,1022.45L80.959,1022.45L80.959,1023.8L78.904,1023.8L78.904,1031.7L77.209,1031.7L77.209,1023.8" style="fill:white;fill-rule:nonzero;"/>
            <path id="path3069" d="M82.55,1022.45L87.412,1022.45L87.412,1023.8L84.246,1023.8L84.246,1026.27L87.24,1026.27L87.24,1027.62L84.246,1027.62L84.246,1030.35L87.545,1030.35L87.545,1031.7L82.55,1031.7L82.55,1022.45" style="fill:white;fill-rule:nonzero;"/>
            <path id="path3071" d="M97.286,1022.45L97.286,1028.44C97.286,1029.98 97.749,1030.48 98.742,1030.48C99.71,1030.48 100.187,1029.98 100.187,1028.44L100.187,1022.45L101.883,1022.45L101.883,1028.44C101.883,1030.88 100.479,1031.83 98.742,1031.83C96.994,1031.83 95.59,1030.88 95.59,1028.44L95.59,1022.45L97.286,1022.45" style="fill:white;fill-rule:nonzero;"/>
            <path id="path3073" d="M104.216,1022.45L106.23,1022.45L109.304,1029.71L109.33,1029.71L109.33,1022.45L110.867,1022.45L110.867,1031.7L108.84,1031.7L105.779,1024.49L105.753,1024.49L105.753,1031.7L104.216,1031.7L104.216,1022.45" style="fill:white;fill-rule:nonzero;"/>
            <rect id="path3075" x="113.293" y="1022.45" width="1.696" height="9.249" style="fill:white;fill-rule:nonzero;"/>
            <path id="path3077" d="M116.819,1022.45L118.646,1022.45L120.515,1029.58L120.541,1029.58L122.463,1022.45L124.211,1022.45L121.389,1031.7L119.601,1031.7L116.819,1022.45" style="fill:white;fill-rule:nonzero;"/>
            <path id="path3079" d="M125.763,1022.45L130.626,1022.45L130.626,1023.8L127.46,1023.8L127.46,1026.27L130.453,1026.27L130.453,1027.62L127.46,1027.62L127.46,1030.35L130.757,1030.35L130.757,1031.7L125.763,1031.7L125.763,1022.45" style="fill:white;fill-rule:nonzero;"/>
            <path id="path3081" d="M135.422,1026.48C136.324,1026.48 136.933,1026.02 136.933,1025.07C136.933,1024.01 136.377,1023.75 135.422,1023.75L134.734,1023.75L134.734,1026.48L135.422,1026.48ZM133.038,1022.45L135.926,1022.45C137.57,1022.45 138.683,1023.19 138.683,1024.89C138.683,1026.09 137.928,1026.9 136.894,1027.06L136.894,1027.1C137.238,1027.15 137.623,1027.31 137.914,1028.17L139.121,1031.7L137.317,1031.7L136.403,1028.69C136.178,1027.96 135.74,1027.72 135.118,1027.72L134.734,1027.72L134.734,1031.7L133.038,1031.7L133.038,1022.45" style="fill:white;fill-rule:nonzero;"/>
            <path id="path3083" d="M141.094,1029.91C141.426,1030.12 142.154,1030.48 143.056,1030.48C143.797,1030.48 144.46,1030.07 144.46,1029.14C144.46,1028.48 144.075,1028.19 143.254,1027.74L142.393,1027.26C141.479,1026.76 140.882,1026.03 140.882,1024.84C140.882,1023.18 142.247,1022.32 143.797,1022.32C144.776,1022.32 145.467,1022.57 145.732,1022.65L145.652,1024.07C145.241,1023.91 144.698,1023.67 143.916,1023.67C143.069,1023.67 142.631,1024.12 142.631,1024.76C142.631,1025.44 143.095,1025.71 143.611,1026L144.606,1026.56C145.692,1027.17 146.208,1027.75 146.208,1029.05C146.208,1030.93 144.871,1031.83 143.108,1031.83C142.182,1031.83 141.465,1031.7 141.001,1031.42L141.094,1029.91" style="fill:white;fill-rule:nonzero;"/>
            <rect id="path3085" x="148.316" y="1022.45" width="1.696" height="9.249" style="fill:white;fill-rule:nonzero;"/>
            <path id="path3087" d="M154.081,1023.8L152.013,1023.8L152.013,1022.45L157.83,1022.45L157.83,1023.8L155.776,1023.8L155.776,1031.7L154.081,1031.7L154.081,1023.8" style="fill:white;fill-rule:nonzero;"/>
            <path id="path3089" d="M161.673,1027.99L158.944,1022.45L160.773,1022.45L162.575,1026.15L164.27,1022.45L166.099,1022.45L163.37,1028.03L163.37,1031.7L161.673,1031.7L161.673,1027.99" style="fill:white;fill-rule:nonzero;"/>
        </g>
        <g id="path3091" transform="matrix(1.18169,0,0,1.18169,-62.5829,-159.834)">
            <path d="M12.946,981.506L206.978,981.506" style="fill:white;fill-rule:nonzero;stroke:white;stroke-width:0.7px;"/>
        </g>
        <g id="g3416" transform="matrix(1.18169,0,0,1.18169,-62.5829,-159.834)">
            <path id="path3093" d="M18.631,1002.6C18.631,1004.72 19.466,1005.47 21.804,1005.47C25.477,1005.47 26.534,1003.19 26.534,1001.02C26.534,998.873 24.892,996.674 21.637,996.674L18.631,996.674L18.631,1002.6ZM18.631,996.146L21.665,996.146C24.336,996.146 25.672,995.088 25.672,992.917C25.672,990.97 24.503,989.188 21.08,989.188C20.467,989.188 19.327,989.245 18.631,989.272L18.631,996.146ZM16.321,991.86C16.321,990.274 16.126,989.439 14.179,989.439L13.204,989.439L13.204,988.911C13.984,988.882 15.904,988.771 16.71,988.743C18.241,988.687 20.356,988.66 20.885,988.66C23.334,988.66 25.477,989.022 26.479,989.745C27.62,990.552 28.176,991.499 28.176,992.834C28.176,994.421 26.868,995.895 25.003,996.23L25.003,996.285C27.62,997.065 29.15,998.762 29.15,1000.93C29.15,1003.13 27.62,1006.22 23.139,1006.22L12.954,1006.22L12.954,1005.69L13.594,1005.69C15.876,1005.69 16.321,1005.16 16.321,1003.41L16.321,991.86" style="fill:white;fill-rule:nonzero;"/>
            <path id="path3095" d="M35.049,998.373C35.717,998.455 36.135,998.428 36.775,998.428C39.863,998.428 41.896,997.12 41.896,993.781C41.896,991.192 40.726,989.188 36.441,989.188C35.912,989.188 35.55,989.188 35.049,989.245L35.049,998.373ZM35.049,1003.61C35.049,1005.27 35.717,1005.69 37.276,1005.69L37.915,1005.69L37.915,1006.22L30.04,1006.22L30.04,1005.69L30.513,1005.69C32.155,1005.69 32.739,1005.25 32.739,1003.38L32.739,991.665C32.739,989.941 32.266,989.439 30.652,989.439L30.04,989.439L30.04,988.911C30.708,988.911 32.405,988.799 33.546,988.743C34.688,988.687 35.244,988.66 37.053,988.66C42.202,988.66 44.511,990.775 44.511,993.613C44.511,995.701 43.092,997.454 40.81,998.122C41.839,998.929 42.675,999.708 43.983,1001.02L46.181,1003.22C47.823,1004.86 49.489,1005.58 51.632,1005.72L51.632,1006.22C46.762,1006.44 45.54,1005.69 43.064,1003.22L41.227,1001.38C40.003,1000.15 39.029,999.347 38.361,998.901C37.665,998.929 37.22,998.957 36.469,998.957C35.856,998.957 35.494,998.929 35.049,998.901L35.049,1003.61" style="fill:white;fill-rule:nonzero;"/>
            <path id="path3097" d="M56.504,1006.22L49.742,1006.22L49.742,1005.69C51.467,1005.61 51.829,1005.16 51.829,1003.3L51.829,991.443C51.829,989.941 51.301,989.522 49.742,989.439L49.742,988.911L56.504,988.911L56.504,989.439C54.751,989.439 54.139,989.828 54.139,991.693L54.139,1003.49C54.139,1005.13 54.585,1005.69 56.504,1005.69L56.504,1006.22" style="fill:white;fill-rule:nonzero;"/>
            <path id="path3099" d="M63.155,1004.16C63.155,1005.3 63.239,1005.69 65.437,1005.69C69.166,1005.69 70.725,1005.16 72.45,1003.44C73.48,1002.44 74.76,1000.29 74.76,997.426C74.76,995.367 74.175,993.085 72.534,991.443C71.254,990.162 69.278,989.188 65.382,989.188C64.24,989.188 63.489,989.272 63.155,989.301L63.155,1004.16ZM60.845,991.693C60.845,989.885 60.372,989.439 58.73,989.439L58.174,989.439L58.174,988.911C59.203,988.855 60.567,988.799 62.098,988.743C63.629,988.687 65.326,988.66 66.773,988.66C74.12,988.66 77.376,992.389 77.376,996.98C77.376,1001.18 74.12,1006.22 67.079,1006.22L58.174,1006.22L58.174,1005.69L58.647,1005.69C60.149,1005.69 60.845,1005.27 60.845,1003.66L60.845,991.693" style="fill:white;fill-rule:nonzero;"/>
            <path id="path3101" d="M95.826,1004.91C93.071,1006.33 89.536,1006.67 88.368,1006.67C82.272,1006.67 79.434,1001.96 79.434,997.899C79.434,993.724 82.356,988.493 89.147,988.493C92.124,988.493 94.1,989.439 94.684,989.439C94.935,989.439 95.158,989.384 95.325,989.245L95.715,989.245L95.715,993.752L95.158,993.752C94.407,990.274 92.042,989.188 89.453,989.188C84.554,989.188 82.05,993.252 82.05,997.732C82.05,1003.44 86.058,1005.97 89.258,1005.97C90.538,1005.97 91.957,1005.69 93.516,1004.91L93.516,1001.41C93.516,999.819 92.959,999.291 91.29,999.291L90.26,999.291L90.26,998.79L97.774,998.79L97.774,999.291C96.383,999.374 95.826,999.847 95.826,1001.04L95.826,1004.91" style="fill:white;fill-rule:nonzero;"/>
            <path id="path3103" d="M110.797,999.958L110.268,999.958C110.046,997.983 109.516,997.76 108.376,997.76L103.672,997.76L103.672,1003.69C103.672,1004.97 104.146,1005.22 105.176,1005.22L109.461,1005.22C111.409,1005.22 111.993,1004.47 112.69,1002.07L113.19,1002.07L112.744,1006.22L97.968,1006.22L97.968,1005.69L98.747,1005.69C100.973,1005.69 101.363,1005.08 101.363,1003.41L101.363,991.665C101.363,990.107 101.001,989.439 99.137,989.439L98.524,989.439L98.524,988.911L111.883,988.911L112.105,992.778L111.603,992.778C111.242,990.413 110.546,989.912 109.545,989.912L103.672,989.912L103.672,996.759L108.654,996.759C109.656,996.759 110.129,996.285 110.268,994.672L110.797,994.672L110.797,999.958" style="fill:white;fill-rule:nonzero;"/>
            <path id="path3105" d="M129.163,990.636C129.47,989.885 129.275,989.439 128.468,989.439L127.299,989.439C126.575,989.439 126.187,989.717 126.519,990.469L127.912,993.697L129.163,990.636ZM131.085,1006.67L127.438,998.066L123.932,1006.67L122.568,1006.67L116.78,991.86C115.945,989.745 115.277,989.439 113.495,989.439L113.329,989.439L113.329,988.911L120.536,988.911L120.536,989.439L120.064,989.439C118.755,989.439 118.255,990.024 118.727,991.192L123.793,1003.94L126.798,996.508L124.544,991.026C123.987,989.661 123.153,989.439 121.678,989.439L121.678,988.911L133.088,988.911L133.088,989.439C131.363,989.439 130.779,989.856 130.333,990.915L128.552,995.256L132.198,1003.94L137.124,991.026C137.568,989.885 137.207,989.495 135.175,989.439L135.175,988.911L140.936,988.911L140.936,989.439C139.238,989.439 138.849,989.772 138.013,991.972L132.419,1006.67L131.085,1006.67" style="fill:white;fill-rule:nonzero;"/>
            <path id="path3107" d="M144.97,990.83L142.604,997.314L147.418,997.314L144.97,990.83L144.97,990.83ZM142.132,998.539L140.517,1002.91C140.322,1003.44 139.961,1004.27 139.961,1004.66C139.961,1005.41 140.684,1005.69 142.214,1005.69L142.66,1005.69L142.66,1006.22L136.231,1006.22L136.231,1005.69C138.04,1005.66 138.346,1005.36 139.237,1002.94L144.303,989.105L144.051,988.493L146.472,988.493L152.289,1003.94C152.845,1005.41 153.431,1005.69 154.821,1005.69L154.821,1006.22L147.168,1006.22L147.168,1005.69L147.892,1005.69C149.478,1005.69 150.062,1005.52 150.062,1004.75C150.062,1004.3 149.868,1003.88 149.757,1003.61L147.892,998.539L142.132,998.539" style="fill:white;fill-rule:nonzero;"/>
            <path id="path3109" d="M161.638,1003.66C161.638,1005.16 162.14,1005.69 163.836,1005.69L164.867,1005.69L164.867,1006.22L156.101,1006.22L156.101,1005.69L157.13,1005.69C158.828,1005.69 159.33,1005.16 159.33,1003.66L159.33,989.912L154.487,989.912C153.372,989.912 152.872,990.552 152.455,993.001L151.955,993.001L152.399,988.493L152.928,988.493C152.955,988.66 153.068,988.771 153.234,988.827C153.401,988.882 153.596,988.911 153.791,988.911L167.177,988.911C167.568,988.911 167.985,988.827 168.039,988.493L168.569,988.493L169.013,993.001L168.513,993.001C168.096,990.552 167.595,989.912 166.48,989.912L161.638,989.912L161.638,1003.66" style="fill:white;fill-rule:nonzero;"/>
            <path id="path3111" d="M181.841,999.958L181.312,999.958C181.091,997.983 180.561,997.76 179.42,997.76L174.717,997.76L174.717,1003.69C174.717,1004.97 175.19,1005.22 176.22,1005.22L180.507,1005.22C182.454,1005.22 183.039,1004.47 183.734,1002.07L184.235,1002.07L183.789,1006.22L169.013,1006.22L169.013,1005.69L169.792,1005.69C172.017,1005.69 172.408,1005.08 172.408,1003.41L172.408,991.665C172.408,990.107 172.046,989.439 170.182,989.439L169.569,989.439L169.569,988.911L182.928,988.911L183.148,992.778L182.648,992.778C182.287,990.413 181.592,989.912 180.589,989.912L174.717,989.912L174.717,996.759L179.699,996.759C180.701,996.759 181.173,996.285 181.312,994.672L181.841,994.672L181.841,999.958" style="fill:white;fill-rule:nonzero;"/>
            <path id="path3113" d="M190.44,998.373C191.108,998.455 191.525,998.428 192.166,998.428C195.255,998.428 197.286,997.12 197.286,993.781C197.286,991.192 196.118,989.188 191.831,989.188C191.302,989.188 190.941,989.188 190.44,989.245L190.44,998.373ZM190.44,1003.61C190.44,1005.27 191.108,1005.69 192.667,1005.69L193.307,1005.69L193.307,1006.22L185.431,1006.22L185.431,1005.69L185.904,1005.69C187.546,1005.69 188.13,1005.25 188.13,1003.38L188.13,991.665C188.13,989.941 187.657,989.439 186.043,989.439L185.431,989.439L185.431,988.911C186.099,988.911 187.796,988.799 188.937,988.743C190.08,988.687 190.635,988.66 192.444,988.66C197.592,988.66 199.902,990.775 199.902,993.613C199.902,995.701 198.483,997.454 196.2,998.122C197.23,998.929 198.064,999.708 199.373,1001.02L201.572,1003.22C203.214,1004.86 204.91,1005.89 207.054,1006.02L207.054,1006.53C202.183,1006.75 200.932,1005.69 198.455,1003.22L196.618,1001.38C195.393,1000.15 194.42,999.347 193.752,998.901C193.056,998.929 192.61,998.957 191.86,998.957C191.245,998.957 190.885,998.929 190.44,998.901L190.44,1003.61" style="fill:white;fill-rule:nonzero;"/>
        </g>
        <g id="path3115" transform="matrix(1.18169,0,0,1.18169,-62.5829,-159.834)">
            <path d="M12.946,1014.78L206.978,1014.78" style="fill:white;fill-rule:nonzero;stroke:white;stroke-width:0.7px;"/>
        </g>
        <g id="path3117" transform="matrix(1.18169,0,0,1.18169,-62.5829,-159.834)">
            <path d="M54.796,1039.67L165.297,1039.67" style="fill:white;fill-rule:nonzero;stroke:white;stroke-width:0.7px;"/>
        </g>
    </g>
</svg>
