<?xml version="1.0" encoding="UTF-8" standalone="no"?>
<!DOCTYPE svg PUBLIC "-//W3C//DTD SVG 1.1//EN" "http://www.w3.org/Graphics/SVG/1.1/DTD/svg11.dtd">
<svg width="100%" height="100%" viewBox="0 0 175 100" version="1.1" xmlns="http://www.w3.org/2000/svg" xmlns:xlink="http://www.w3.org/1999/xlink" xml:space="preserve" style="fill-rule:evenodd;clip-rule:evenodd;stroke-miterlimit:1.41421;">
    <g transform="matrix(0.43725,0,0,0.435359,-268.003,-97.1781)">
        <path d="M727.143,281.802C727.143,313.34 701.575,338.908 670.036,338.908C638.497,338.908 612.93,313.34 612.93,281.802C612.93,250.263 638.497,224.695 670.036,224.695C701.575,224.695 727.143,250.263 727.143,281.802Z" style="fill:white;fill-rule:nonzero;"/>
    </g>
    <g transform="matrix(0.523341,0,0,0.521078,-325.765,-121.501)">
        <path d="M661.14,311.775L661.14,280.43L655.818,280.43L655.818,271.118L661.14,271.118L661.14,269.538C661.14,264.633 662.637,259.229 666.295,255.902C669.455,252.91 673.861,251.828 677.52,251.828C680.348,251.828 682.509,252.161 684.254,252.66L683.755,262.387C682.675,262.055 681.344,261.806 679.681,261.806C675.524,261.806 673.779,265.048 673.779,269.04L673.779,271.118L681.926,271.118L681.926,280.43L673.861,280.43L673.861,311.775L661.14,311.775Z" style="fill:rgb(143,23,29);fill-rule:nonzero;"/>
    </g>
    <g transform="matrix(0.43725,0,0,0.435355,-127.456,-168.576)">
        <path d="M548.745,444.65C548.745,476.189 523.177,501.758 491.639,501.758C460.1,501.758 434.532,476.189 434.532,444.65C434.532,413.112 460.1,387.544 491.639,387.544C523.177,387.544 548.745,413.112 548.745,444.65Z" style="fill:white;fill-rule:nonzero;"/>
    </g>
    <g transform="matrix(0.43725,0,0,0.435355,-127.456,-168.576)">
        <path d="M524.725,422.418C522.263,423.51 520.349,423.939 517.573,424.27C520.406,422.57 522.583,419.883 523.61,416.676C520.958,418.25 518.02,419.391 514.893,420.006C512.39,417.339 508.822,415.672 504.872,415.672C497.293,415.672 491.146,421.818 491.146,429.398C491.146,430.475 491.267,431.521 491.503,432.527C480.095,431.955 469.98,426.49 463.21,418.184C462.028,420.211 461.351,422.57 461.351,425.086C461.351,429.846 463.775,434.049 467.457,436.512C465.208,436.439 463.09,435.822 461.24,434.793C461.238,434.85 461.238,434.91 461.238,434.967C461.238,441.617 465.973,447.164 472.251,448.424C471.1,448.74 469.886,448.908 468.635,448.908C467.748,448.908 466.89,448.822 466.052,448.662C467.799,454.113 472.866,458.082 478.874,458.193C474.176,461.877 468.258,464.07 461.825,464.07C460.719,464.07 459.624,464.006 458.553,463.879C458.553,463.879 463.611,470.873 481.285,473.322C498.958,475.771 529.373,463.838 518.607,429.215C521.292,427.279 522.885,425.172 524.725,422.418Z" style="fill:rgb(143,23,29);fill-rule:nonzero;"/>
    </g>
    <g transform="matrix(0.43725,0,0,0.435359,-173.532,-189.876)">
        <path d="M726.119,608.504C726.119,640.043 700.552,665.609 669.013,665.609C637.474,665.609 611.906,640.043 611.906,608.504C611.906,576.965 637.474,551.396 669.013,551.396C700.552,551.396 726.119,576.965 726.119,608.504Z" style="fill:white;fill-rule:nonzero;"/>
    </g>
    <g transform="matrix(0.43725,0,0,0.435359,-173.532,-189.876)">
        <path d="M647.142,589.111C651.517,589.111 654.24,586.209 654.24,582.584C654.16,578.881 651.517,576.061 647.222,576.061C642.931,576.061 640.123,578.881 640.123,582.584C640.123,586.209 642.846,589.111 647.057,589.111L647.142,589.111ZM653.414,632.021L653.414,594.264L640.866,594.264L640.866,632.021L653.414,632.021Z" style="fill:rgb(143,23,29);"/>
    </g>
    <g transform="matrix(0.43725,0,0,0.435359,-173.532,-189.876)">
        <path d="M660.357,632.021L672.909,632.021L672.909,610.936C672.909,609.809 672.99,608.68 673.323,607.875C674.229,605.619 676.296,603.285 679.76,603.285C684.304,603.285 686.12,606.748 686.12,611.822L686.12,632.021L698.667,632.021L698.667,610.371C698.667,598.775 692.477,593.379 684.22,593.379C677.45,593.379 674.477,597.166 672.826,599.738L672.909,599.738L672.909,594.264L660.357,594.264C660.523,597.805 660.357,632.021 660.357,632.021Z" style="fill:rgb(143,23,29);"/>
    </g>
    <g transform="matrix(0.437254,0,0,0.435351,16.0115,-240.004)">
        <path d="M363.607,608.396C363.607,639.936 338.04,665.504 306.5,665.504C274.962,665.504 249.395,639.936 249.395,608.396C249.395,576.857 274.962,551.289 306.5,551.289C338.04,551.289 363.607,576.857 363.607,608.396Z" style="fill:white;fill-rule:nonzero;"/>
    </g>
    <g transform="matrix(0.437254,0,0,0.435351,16.0115,-239.188)">
        <path d="M325.022,635.416L286.734,635.416C281.35,635.416 276.984,631.051 276.984,625.666L276.984,587.377C276.984,581.992 281.35,577.627 286.734,577.627L325.022,577.627C330.407,577.627 334.772,581.992 334.772,587.377L334.772,625.666C334.772,631.051 330.407,635.416 325.022,635.416Z" style="fill:none;stroke:rgb(143,23,29);stroke-width:9.55px;"/>
    </g>
    <g transform="matrix(0.437254,0,0,0.435351,16.0115,-239.188)">
        <path d="M305.878,594.563C312.464,594.563 317.837,599.936 317.837,606.521C317.837,613.107 312.464,618.48 305.878,618.48C299.293,618.48 293.919,613.107 293.919,606.521C293.919,599.936 299.293,594.563 305.878,594.563Z" style="fill:none;stroke:rgb(143,23,29);stroke-width:9.55px;"/>
    </g>
    <g transform="matrix(0.437254,0,0,0.435351,16.0926,-238.745)">
        <path d="M323.115,584.584C325.482,584.584 327.413,586.514 327.413,588.881C327.413,591.246 325.482,593.178 323.115,593.178C320.749,593.178 318.817,591.246 318.817,588.881C318.817,586.514 320.749,584.584 323.115,584.584Z" style="fill:rgb(143,23,29);fill-rule:nonzero;"/>
    </g>
    <g transform="matrix(0.43725,0,0,0.435363,-79.2091,-118.422)">
        <path d="M365.821,444.596C365.821,476.135 340.253,501.701 308.714,501.701C277.175,501.701 251.608,476.135 251.608,444.596C251.608,413.057 277.175,387.489 308.714,387.489C340.253,387.489 365.821,413.057 365.821,444.596Z" style="fill:white;fill-rule:nonzero;"/>
    </g>
    <g transform="matrix(0.43725,0,0,0.435363,-79.2091,-118.422)">
        <path d="M295.681,467.014L295.681,422.177L331.899,444.596L295.681,467.014Z" style="fill:rgb(143,23,29);fill-rule:nonzero;stroke:rgb(143,23,29);stroke-width:9.55px;stroke-linejoin:round;"/>
    </g>
</svg>
